<mxfile host="65bd71144e">
    <diagram id="k71Dr1M4Yy5hHqV58eGu" name="Page-1">
        <mxGraphModel dx="1084" dy="838" grid="1" gridSize="10" guides="1" tooltips="1" connect="1" arrows="1" fold="1" page="1" pageScale="1" pageWidth="850" pageHeight="1100" math="0" shadow="0">
            <root>
                <mxCell id="0"/>
                <mxCell id="1" parent="0"/>
                <mxCell id="2" value="" style="rounded=0;whiteSpace=wrap;html=1;fillColor=#f5f5f5;strokeColor=#666666;" parent="1" vertex="1">
                    <mxGeometry x="40" y="40" width="800" height="600" as="geometry"/>
                </mxCell>
                <mxCell id="3" value="" style="rounded=0;whiteSpace=wrap;html=1;fillColor=#CCCCCC;strokeColor=none;" parent="1" vertex="1">
                    <mxGeometry x="40" y="40" width="200" height="600" as="geometry"/>
                </mxCell>
                <mxCell id="4" value="Club Connect Logo" style="rounded=1;whiteSpace=wrap;html=1;fillColor=#B3B3B3;strokeColor=none;fontColor=#ffffff;fontSize=14;fontStyle=1" parent="1" vertex="1">
                    <mxGeometry x="60" y="60" width="160" height="60" as="geometry"/>
                </mxCell>
                <mxCell id="5" value="Dashboard" style="rounded=1;whiteSpace=wrap;html=1;align=left;spacingLeft=10;fillColor=#B3B3B3;strokeColor=none;fontColor=#ffffff;" parent="1" vertex="1">
                    <mxGeometry x="60" y="140" width="160" height="40" as="geometry"/>
                </mxCell>
                <mxCell id="6" value="Teams" style="rounded=1;whiteSpace=wrap;html=1;align=left;spacingLeft=10;fillColor=#B3B3B3;strokeColor=none;fontColor=#ffffff;" parent="1" vertex="1">
                    <mxGeometry x="60" y="190" width="160" height="40" as="geometry"/>
                </mxCell>
                <mxCell id="7" value="Events" style="rounded=1;whiteSpace=wrap;html=1;align=left;spacingLeft=10;fillColor=#B3B3B3;strokeColor=none;fontColor=#ffffff;" parent="1" vertex="1">
                    <mxGeometry x="60" y="240" width="160" height="40" as="geometry"/>
                </mxCell>
                <mxCell id="8" value="Members" style="rounded=1;whiteSpace=wrap;html=1;align=left;spacingLeft=10;fillColor=#B3B3B3;strokeColor=none;fontColor=#ffffff;" parent="1" vertex="1">
                    <mxGeometry x="60" y="290" width="160" height="40" as="geometry"/>
                </mxCell>
                <mxCell id="9" value="" style="rounded=0;whiteSpace=wrap;html=1;fillColor=#ffffff;strokeColor=#e0e0e0;" parent="1" vertex="1">
                    <mxGeometry x="240" y="40" width="600" height="60" as="geometry"/>
                </mxCell>
                <mxCell id="11" value="Notifications" style="rounded=1;whiteSpace=wrap;html=1;fillColor=#f5f5f5;strokeColor=#e0e0e0;fontColor=#000000;" parent="1" vertex="1">
                    <mxGeometry x="680" y="50" width="40" height="40" as="geometry"/>
                </mxCell>
                <mxCell id="12" value="Profile" style="rounded=1;whiteSpace=wrap;html=1;fillColor=#f5f5f5;strokeColor=#e0e0e0;fontColor=#000000;" parent="1" vertex="1">
                    <mxGeometry x="740" y="50" width="80" height="40" as="geometry"/>
                </mxCell>
                <mxCell id="13" value="Main Content Area (Outlet)" style="rounded=1;whiteSpace=wrap;html=1;fillColor=#ffffff;strokeColor=#e0e0e0;fontSize=14;verticalAlign=top;spacing=10;" parent="1" vertex="1">
                    <mxGeometry x="260" y="120" width="560" height="500" as="geometry"/>
                </mxCell>
                <mxCell id="14" value="Content will be dynamically loaded here&#10;based on route/navigation" style="text;html=1;strokeColor=none;fillColor=none;align=center;verticalAlign=middle;whiteSpace=wrap;rounded=0;fontSize=12;fontColor=#666666;" parent="1" vertex="1">
                    <mxGeometry x="280" y="320" width="520" height="40" as="geometry"/>
                </mxCell>
                <mxCell id="15" value="Fixed Sidebar Navigation" style="text;html=1;strokeColor=none;fillColor=none;align=center;verticalAlign=middle;whiteSpace=wrap;rounded=0;fontSize=10;fontColor=#666666;" parent="1" vertex="1">
                    <mxGeometry x="60" y="560" width="160" height="20" as="geometry"/>
                </mxCell>
                <mxCell id="16" value="Top Navigation Bar" style="text;html=1;strokeColor=none;fillColor=none;align=center;verticalAlign=middle;whiteSpace=wrap;rounded=0;fontSize=10;fontColor=#666666;" parent="1" vertex="1">
                    <mxGeometry x="460" y="20" width="160" height="20" as="geometry"/>
                </mxCell>
            </root>
        </mxGraphModel>
    </diagram>
</mxfile>